# xmcd
#
# Track frame offsets:
#	150
#	13286
#	29197
#	39993
#	59500
#	72326
#	82498
#	97521
#	113636
#	132563
#	145097
#	158792
#	171942
#
# Disc length: 2435 seconds
# Revision: 0
# Processed by: cddbd v1.5.2PL0 Copyright (c) Steve Scherf et al.
# Submitted via: dBpowerAMP V12.0
#
DISCID=b909810d
DTITLE=Kristyn Harris - Down the Trail
DYEAR=2015
DGENRE=Western Swing
TTITLE0=Down the Trail to San Antone
TTITLE1=Mustang Waltz
TTITLE2=Travelin' in My Boots
TTITLE3=Acres of Nowhere
TTITLE4=Maiden's Prayer
TTITLE5=Thank Heavens for Dale Evans
TTITLE6=When the Bloom is on the Sage
TTITLE7=Diesel and Dust
TTITLE8=Texas and You
TTITLE9=Guitar Man
TTITLE10=Amazing Grace
TTITLE11=Yodelin' Fever
TTITLE12=`I've Been Everywhere (in Texas)
EXTD=
EXTT0=
EXTT1=
EXTT2=
EXTT3=
EXTT4=
EXTT5=
EXTT6=
EXTT7=
EXTT8=
EXTT9=
EXTT10=
EXTT11=
EXTT12=
PLAYORDER=
